<?xml version="1.0" encoding="utf-8"?>
<!-- Svg Vector Icons : http://www.onlinewebfonts.com/icon -->
<!DOCTYPE svg PUBLIC "-//W3C//DTD SVG 1.1//EN" "http://www.w3.org/Graphics/SVG/1.1/DTD/svg11.dtd">
<svg version="1.1" xmlns="http://www.w3.org/2000/svg" xmlns:xlink="http://www.w3.org/1999/xlink" x="0px" y="0px" viewBox="0 0 1000 1000" enable-background="new 0 0 1000 1000" xml:space="preserve">
<metadata> Svg Vector Icons : http://www.onlinewebfonts.com/icon </metadata>
<g><path d="M506.3,132L506.3,132c0.3,0,0.7-0.1,1-0.1c3.4,0,6.2,2.8,6.2,6.2c0,2.6-2,5.2-4.4,6c-40,18.9-52.9,30.9-72,69.3c-1,1.8-3.4,3.3-5.5,3.3c-3.4,0-6.2-2.8-6.2-6.2c0-0.5,0.1-1.2,0.2-1.7c3.3-11.6,6.6-20.6,10.3-28.7c-0.2,0-0.5,0-0.7,0c-3.4,0-6.2-2.8-6.2-6.2c0-0.5,0.1-1.2,0.2-1.7c3.6-11.6,6.7-19.6,13-25.4c6.3-5.8,14.5-8.3,26.3-11.2c0.4-0.1,1-0.2,1.4-0.2c3,0,5.7,2.4,6.1,5.3c8.3-3.2,17.5-5.7,28.7-8.5C505.2,132.2,505.9,132,506.3,132L506.3,132z M637.3,139.9L637.3,139.9c34.4,2.2,66.7,16.4,100.7,44.4c22.3,18.4,41,37.3,64.4,52c12.2,7.7,21.9,13.7,31.8,25.4c10.4,12.4,19,25.6,25.7,41.1c7-2.8,14.3-5.4,19.7-10c8.6-7.3,14.8-21.3,25.4-32.1c4.4-4.5,10.3-6.5,16-6.7s11.6,1.2,16.9,3.3c10.7,4.3,20.1,10.8,24.5,19.4c22.6,43.3,31,119.1,26.3,165.7c-5.8,57.1-29.3,111.9-80.8,139.4c-33.6,18-77.1,19.9-115.2,13.6c-2,6.6-4.1,13.1-6,19.7c-8.5,27.9-39.3,48.9-67.7,50.2c-13.3,0.6-24.1-2.8-33.3-8.2c-9.2-5.4-16.8-12.5-24.8-20.3c-5.5-5.3-11.1-10.7-16.6-16c-0.1,0.8-0.2,1.6-0.3,2.4c6.2,12.7,9.6,24,14.8,36.3c6.3,15.1,9.8,25.7,10.3,42.3c0.4,13.9,0.8,27.8,1.2,41.7c5.3,9.8,6.6,15.7,5.7,27.8c-1,14.6-6.2,24.8-15.1,29.9c-9,5.2-19.7,5.8-32.4,5.7c-8.1-0.1-38.7-0.2-47.8-0.9c-7.9-0.6-14.9-1-20.9-2.4c-3.8-0.9-6.9-2.5-10-4.5c-6.6,5.4-14.5,11.7-21.8,17.5c-4.2,3.4-8,6.6-11.2,9.1c-2.6,2-4.3,3.1-6,4.2c-3.6,5.5-5.9,10.4-9.1,15.1c-3.4,5-7.9,9.8-15.4,13.9c-21.5,11.6-40.3,11-55.3,1.8c-15-9.2-26.4-25.6-38.4-44.2c-5.7-8.8-15.2-23.4-20-38.4c-2.4-7.5-3.6-15.5-2.1-23s6.5-14.3,14.5-18.4c1.3-0.7,2.1-1.2,3.3-1.8c-16.1,0.7-32.3,0.2-48.7-1.8c0.1,0.8,0.2,1.7,0.3,2.4c0.9,7.7,1.8,13.2,0.9,19.1s-3.4,11-7.9,17.5c-6.1,9-7.9,11.3-14.8,26.6c1,12.3,0.6,21-3,34.5c-2.6,9.7-9.8,16.4-18.1,19.7c-8.4,3.2-18,3.6-27.8,3c-19.6-1.2-40.2-7.1-52-10.3c-14-3.8-31.8-7.4-45.1-15.7c-6.6-4.2-12.3-9.8-14.8-17.5c-2.5-7.7-1.6-17.1,3-27.2c2.2-4.8,3.5-9.4,5.1-14.2c-11.5,1.2-23.3-2.1-34.2-7.3c-14.7-7-28.1-17.2-36.9-26c-16.7-16.7-25.6-36.7-28.7-55.6c-1.3-7.9-1.6-13.2,0.9-18.1c2.5-5,6.3-7.8,11.5-13c9.6-9.5,19.2-19,28.7-28.4c3.6-9.9,7.3-19.6,10.9-29.3c-1.4-7.6-2.7-15.2-3.3-23c-2.5-29.4-1.6-51.2,1.8-71.4c-6.9,1.4-13.9,1.8-20.6,0c-9.8-2.7-19-9.5-24.2-20.3c-3.6-7.5-5.4-15.1-7.9-25.1c-0.2-0.2-0.1-0.4-0.3-0.6c-8.8-9.9-12.7-21.1-10.9-31.8c2-11.7,8.8-22.5,17.2-31.8c8.5-9.2,18.8-17,28.4-23c9.6-6,18.1-10,25.1-11.2c0.3-0.1,0.8-0.1,1.1-0.1c3.4,0,6.2,2.8,6.2,6.2c0,0.6-0.2,1.5-0.4,2.1c-2.1,5.8-4.1,10.9-6,16c5.9,5.3,9.7,12.1,10.6,19.4c1.1,9.1-0.5,18.2-2.1,25.4c-0.6,2.8-3.3,5-6.1,5c-1.6,0-3.8-1-4.8-2.3c-2.5-3.1-4.2-5.8-5.7-8.2c-0.3,4.4-0.2,8.9-1.2,13.3c-1.4,6.5-4.8,12.6-9.7,17.8c0,0.1,0.3,0.2,0.3,0.3c1-0.3,2.1-0.5,3.9-1.2c12.5-4.8,22.9-16.3,33.9-28.4c11.9-22.8,26.9-43.5,47.8-62c51.4-45.6,101.2-61.1,177.8-73.5c10-10.3,20.1-20.2,31.2-29.9c15.2-13.4,27.7-17.3,41.7-18.4c23.6-31.4,43.7-55.2,83.5-72C567,147.3,602.9,137.7,637.3,139.9L637.3,139.9z M635.5,166.8L635.5,166.8c-29.9-1.2-62.5,8.1-103.1,25.8c-26.8,11.6-39,24.3-53.8,42.6c16.1-0.5,32.2-0.9,48.7-2.4l0.1,0c3.4,0,6.2,2.8,6.2,6.2c0,2.5-1.9,5.1-4.2,5.9c-22.3,5.2-43.7,9.4-65.6,12.7c-12.2,1.8-19.9,2.7-26,4.8c-6.2,2.1-11.5,5.7-20.3,14.2c-32.9,32-60.5,68.7-91.3,101.9c-17,18.3-25.3,36.6-35.7,58.4c-5,10.4-6.6,16.5-6,21.8c0.6,5.3,3.6,11.2,10.3,20.3c11.1,15,18.4,24.7,24.5,36.9c14.7-20.9,31-39.5,48.4-60.5c1-1.1,3.1-2,4.6-2c3.4,0,6.2,2.8,6.2,6.2c0,0.9-0.4,2.2-0.8,3c-16.1,25.9-30.6,50.1-43.9,76.2c-7.9,15.5-10.7,22.8-10.9,38.1c14.2,16.2,22.6,24.2,34.8,27.5c14.5,4,27.5,3.6,40.2-3c33.5-17.3,66.5-40.1,105.9-44.5c17.5-33.3,12.8-76,5.7-115.8c-6.1-34.7-4.6-65.7,3.6-100.4c0.3-3.1,3.1-5.6,6.2-5.6c3.4,0,6.2,2.8,6.2,6.2c0,0.2,0,0.4,0,0.5c2,33,4.4,63.3,10.9,95.3c9.7,48,11.7,90.9-8.8,141.2c-0.9,2.2-3.4,3.9-5.7,3.9c-40.8,1-75.2,24.9-114,44.8c-18.5,9.4-36.7,10.5-56.9,5.7c-21.8-5.2-37.5-21.4-57.8-43.6c-0.9-1-1.6-2.8-1.6-4.1c0-0.2,0-0.5,0-0.7c1.9-15.6,4.1-26.9,9.4-38.7c-6.8-19.4-14.7-28.9-30.8-50.5c-9.8-13.2-15.6-23.4-16.3-34.8c-0.7-11.4,3.5-22.6,10.9-37.5c10.5-21.2,20.2-41.3,37.2-61.4c12.2-14.3,23.4-27.7,34.8-40.8c-51.8,9.6-87.4,24.3-125.2,57.5c-30.8,27.1-50.2,60.7-64.1,100.1c-8.6,24.4-11.1,48.4-6.9,89.2c5.2,51.5,33.3,111.2,63.2,154.3c0.6,0.9,1,2.4,1,3.4c0,0.3,0,0.8-0.1,1.1c-3.7,27.5-8.5,48.3-16.3,68.4c-1.6,4.1-1.1,6.2,0.3,8.5c1.4,2.3,4.3,5.1,8.5,7.3c8.4,4.4,20.7,7,29.3,9.4c6.8,1.9,22.8,6.2,37.2,7.9c7.2,0.8,13.9,0.9,18.4,0c4.6-0.9,5.9-2.2,6.4-3.9c2.8-10.1,2.6-16.5,1.8-27.8c0-0.9,0.4-2.3,0.9-3c9.3-18.4,12.1-21.4,18.4-31.8c6.6-11,6.6-13,6.7-26.3c0.1-17.3-0.5-48,0.3-60.2c0-0.1,0-0.4,0-0.5c0-3.4,2.8-6.2,6.2-6.2c3.1,0,5.9,2.5,6.2,5.6c2.1,8.9,4.5,21.4,6.7,33.3c33,5.4,65.6,4.8,98.6-1.5c0.5-1.5,0.8-3,1.2-4.5c2.7-9.5,7.5-18.2,9.7-25.7c0.8-2.4,3.4-4.3,5.9-4.3c3.4,0,6.2,2.8,6.2,6.2c0,0.1,0,0.3,0,0.5c-0.7,8.3-1.1,16.7-1.8,25.1c-0.7,8.4-0.7,14.5,0.3,22.7c0.6,4.7,1.2,9.4,1.8,14.2c0.1,0.3,0.1,0.8,0.1,1.1c0,3.4-2.8,6.2-6.2,6.2c-2,0-4.4-1.4-5.4-3.1c-1.2-2-3.6-5.1-5.7-7.9c-12.8,8.4-21.9,14.9-36,22.4c-2.4,1.3-3,2.5-3.3,5.4c-0.3,2.9,0.5,7.4,2.1,12.1c3.2,9.4,9.3,19.7,12.7,25.1c7.6,12.1,16,25,24.8,32.4c8.8,7.4,16.5,10.1,28.7,3.6c6.7-3.5,12.3-13.7,19.1-22.7c0.4-0.6,1.2-1.4,1.8-1.8c1.2-0.7,5.5-4,10.9-8.2c5.4-4.2,12-9.6,18.4-14.8c6.5-5.2,13.1-10.3,18.4-14.5c5.3-4.2,8.9-7.1,11.8-8.8c0,0,1.6-1.1,3.3-3c1.7-1.9,3.7-4.7,6-7.9c4.6-6.3,10.1-14.3,15.4-22.7c5.3-8.4,10.2-17.4,14.2-24.8c4-7.4,7.1-13.8,7.9-16.3c9.7-31.3,20.2-55,23.9-85.6c-20.1-9.4-32.7-20.7-47.8-38.4c-1-1-1.7-2.9-1.7-4.3c0-3.4,2.8-6.2,6.2-6.2c1.2,0,3,0.6,4,1.4c22.3,16.5,41.1,25.3,65.3,33c0.8,0.3,1.9,0.9,2.4,1.5c8.9,7.9,18.1,15.8,27.5,24.2c7.4,6.6,14,12.3,21.2,16.6c-1-1.1-2.5-1.8-3.3-3c-3.6-5.4-4.7-11.6-4.8-17.8c-0.3-12.5,3.5-25.8,6.4-35.4c3.1-10.6,2.3-22.6-0.3-34.2c-0.1-0.3-0.1-0.8-0.1-1.1c0-0.6,0.2-1.6,0.4-2.2c-0.5,0.3-1.8,0.9-2.1,1.2c-0.9,0.8-1.8,2-3.3,5.4c-3.1,6.8-6.6,15.3-9.4,22.7c-0.9,1.9-3.4,3.5-5.6,3.5c-3.4,0-6.2-2.8-6.2-6.2l0-0.3c1.1-6.7,2.6-14.8,3.6-21.2c1.1-7.1,1.9-12.6,5.7-17.2c3.9-4.6,9.7-6.3,17.2-7.6c4.9-0.8,14.3-3,20-3.9c0.2,0,0.5,0,0.7,0c3.4,0,6.2,2.8,6.2,6.2c0,1.9-1.3,4.3-3,5.3c-5.1,2.8-12.4,5.8-17.2,8.2c0.7,0.1,1.8,0.5,2.4,0.9c10.1,6.4,17.5,11.6,27.8,15.1c52.6,17.7,113,34.5,163.3,6.4c39.1-21.8,61.6-71.3,66.5-117c4.4-40.6-3.6-106.4-20.3-146.7c-0.6-1.4-3-3.2-4.5-5.1c-7.6,22.1-21.3,41.3-46.3,50.2c-7.5,2.7-14.5,2.8-20.6,1.5c-4-0.8-7.9-2.1-11.8-3.3c-0.2,1.6-1.1,2.2-0.6,4.8c3.6,19,4.8,40.5,0.6,59c-3.7,16.2-6.9,39.6-17.5,53.2c-1,1.3-3.2,2.4-4.9,2.4c-3.4,0-6.2-2.8-6.2-6.2c0-0.4,0.1-1.2,0.2-1.6c2.3-8.5,7-33.2,8.2-49c0.5-6.7-0.7-15.5-1.8-24.2c-0.6,0-4.9,1.7-8.5,4.5c-3.6,2.8-6.8,6.6-7.6,8.2c-7.9,16-8.1,32.3-18.4,50.2c-0.9,1.9-3.4,3.5-5.6,3.5c-3.4,0-6.2-2.8-6.2-6.2c0-0.8,0.3-2,0.6-2.7c3.4-8.2,4.1-16.2,4.8-25.1c0.7-8.9,1.6-18.6,5.4-29.3c0.3-0.8,0.9-1.4,1.2-2.1c-5,2.7-8.8,6.2-11.8,11.2c-4.4,7.4-8.1,17.7-16.6,28.1c-1,1.4-3.3,2.5-5,2.5c-3.4,0-6.2-2.8-6.2-6.2c0-1,0.4-2.4,0.9-3.2c7-12.9,8.5-23.7,13-33.9c4.5-10.2,13.3-18.7,30.8-22.7c4.3-1,8.4-1.3,12.4-1.5c-8.2,0-16.3,0.2-25.1,1.5c-0.2,0-0.5,0-0.7,0c-3.4,0-6.2-2.8-6.2-6.2c0-2.2,1.6-4.7,3.6-5.6c1.2-0.5,2.4-1,3.6-1.5c-1.9-4.4-3.2-8.9-2.7-13.9c0-0.4,0.2-0.8,0.3-1.2h-0.3c-3.4-0.1-6.5-0.5-9.4-1.5c-2.1-0.9-3.8-3.5-3.8-5.7c0-2.8,2.2-5.5,5-6.1c5.5-0.9,15.7-4.3,21.8-7.3c0.1-0.1,0.2-0.2,0.3-0.3c0.1,0,0.2,0,0.3,0c0.2-0.1,0.6-0.2,0.9-0.3c0.1,0,0.2,0,0.3,0c4.9-2.6,10.4-4.2,16.3-3.6c1.2,0.1,2.6,0.7,3.9,0.9c-4.3-7.6-8.3-15.3-13.6-22.7c-7.5-10.5-12.5-13.2-24.5-20.3c-2.2-1.3-4.5-2.9-6.7-4.2c-8.5-1.5-17.4-2.8-24.2-1.5c-0.3,0.1-0.8,0.1-1.1,0.1c-3.4,0-6.2-2.8-6.2-6.2c0-2.2,1.7-4.8,3.7-5.7c2.7-1,4.8-1.1,7.3-1.8c-13-10.2-25.3-20.7-38.4-31.8C693.2,179.9,665.3,168.1,635.5,166.8L635.5,166.8z M652.7,267.3c0.3,0,0.7-0.1,0.9-0.1c3.4,0,6.2,2.8,6.2,6.2c0,2.6-2,5.2-4.4,6c-32.2,15.4-39.4,33.5-44.2,54.4c-0.7,2.6-3.4,4.6-6,4.6c-2.8,0-5.5-2.2-6.1-4.9c-3-15.2-2.6-29.4,5.7-40.8s23.3-19.3,46.3-25.1C651.6,267.4,652.3,267.3,652.7,267.3L652.7,267.3z M519.9,269.7c0.1,0,0.3,0,0.5,0c3.4,0,6.2,2.8,6.2,6.2c0,2.5-1.9,5.1-4.3,5.9c-15.5,6.1-29.7,10.6-44.8,14.5c-13.3,17.4-20.6,26-23.6,49c-0.6,2.6-3.3,4.8-6,4.8c-2.7,0-5.4-2.1-6-4.8c-1.8-11.4-2.6-18.5-2.1-25.7c-4.8,7.4-9.9,16.5-14.8,26.9c-7.8,16.6-14.7,33.8-18.8,43.3c-0.8,2.3-3.4,4.3-5.9,4.3c-3.4,0-6.2-2.8-6.2-6.2c0-0.6,0.1-1.4,0.3-2c2.6-11.4,7.8-30.6,14.5-49.6c6.7-19,14.5-37.3,24.5-47.2c5.6-5.5,9.5-8.7,14.5-10.6c5.1-1.9,10-2,17.5-2.7c18-1.7,36.1-3.7,54.1-5.7C519.7,269.9,519.8,269.8,519.9,269.7L519.9,269.7z M925.5,281.2c-1.1,0-2.1,0.1-3.3,1.2c-9.2,9-16.8,23.1-29.3,33c-4.6,3.6-9.8,6.1-14.5,7.9c1.9-0.5,3.5-0.1,5.7-1.2c3.4-1.7,5.7-4.6,8.8-6.7C906.4,306.5,917.5,295.1,925.5,281.2L925.5,281.2z M710.2,321.7L710.2,321.7l0.1,0c3.4,0,6.2,2.8,6.2,6.2c0,1.6-0.9,3.6-2.1,4.7c-3.1,2.8-7,4.7-10.6,7c4.5,3.3,8.6,7.3,11.2,12.7c0.8,1.8,1,3.6,1.5,5.4c8.1-2.1,16-4,23-3.9c0.2,0,0.6-0.1,0.8-0.1c3.5,0,6.3,2.8,6.3,6.3c0,2.9-2.4,5.7-5.3,6.2c-27.7,7.8-58,26.1-78.3,50.2c-1,1.2-3.1,2.1-4.7,2.1c-3.4,0-6.2-2.8-6.2-6.2c0-0.6,0.1-1.4,0.3-2c1.9-5.3,5-9.5,7.9-13.9c-4.5-3.3-8.6-7.3-11.2-12.7c-0.9-1.8-0.6-3.9-1.2-5.7c-5.4,3.9-10.6,8.1-16.9,10.6c-0.5,0.2-1.4,0.3-1.9,0.3c-3.4,0-6.2-2.8-6.2-6.2c0-1.4,0.8-3.4,1.8-4.4c4.8-4.3,11.5-12.7,18.1-20.9c6.6-8.2,13-16.2,20-20.9c7.5-5,15.9-6.9,23.6-8.5c7.7-1.5,14.9-2.8,21.2-5.7C708.1,322,709.3,321.7,710.2,321.7L710.2,321.7L710.2,321.7z M69.9,348c3.3,0.1,6,2.9,6,6.2c0,1.4-0.8,3.4-1.8,4.4c-30.4,32.2-37.7,48.3-41.4,91c-0.6,2.6-3.3,4.8-6,4.8c-2.7,0-5.4-2.1-6-4.8c-1.1-12.1-1.3-21.6-0.9-30.5c-0.8,0.4-2,0.7-2.9,0.7c-3.1,0-5.9-2.5-6.2-5.6c-0.9-12.1-1.2-20.7,2.4-28.4c3.6-7.7,10.3-13.3,20.3-20.3c0.9-0.6,2.5-1.2,3.6-1.2c2,0,4.5,1.5,5.5,3.3c6.5-6,14.2-11.8,23.6-18.4c0.9-0.7,2.6-1.2,3.7-1.2L69.9,348z M825.7,351.4c2.4,0.1,4.8,0.1,7.3,0.3c0.2,0.9,0.4,1.8,0.6,2.7C831,353.2,828.4,351.7,825.7,351.4z M96.5,395.5L96.5,395.5C91,400.4,85.8,406,82,411.9c-3.8,5.8-6.1,11.7-6.4,16.9C75.4,434,77,439,82,444.2c0.2-0.3,0.6-0.7,0.9-0.9c8-6.4,9.7-12.3,10.6-20.6C94.2,415.3,94.2,405.7,96.5,395.5L96.5,395.5z M123.7,466.9c-2.1,1.1-3.5,2.7-5.7,3.6c-5.4,2.2-9.8,3.6-13.9,3.9s-8.2-1.2-11.2-3.6c-1-0.9-1.3-2.1-2.1-3c0.3,0.6,0.3,1.5,0.6,2.1c2.7,5.6,6.1,7.1,12.1,7.3c5.3,0.1,12-2.2,18.1-4.5c0.1-0.2,0.2-0.4,0.3-0.6C122.5,470.3,123.1,468.6,123.7,466.9z M757.9,619.3c-3,3.2-6.9,5.9-11.2,7.9c0.3,0.6,0.5,1.5,0.6,2.1C751.5,626.3,755,623.1,757.9,619.3z M130.1,637.2c-0.1,0.3-0.2,0.6-0.3,0.9c-0.2,0.7-0.8,1.6-1.2,2.1c-9.4,9.5-18.8,19-28.1,28.4c-3.6,3.6-5.2,5.6-5.4,6c-0.2,0.5-0.7,1.4,0,6c1.7,11.9,9.3,25.7,20.6,37.2c4.9,5,17,14.8,28.7,20.6c5.9,2.9,11.6,4.8,16,4.8c4.4,0.1,7.1-0.8,9.7-4.2c2.1-2.7,3.1-6.8,4.2-11.2C156.6,700.8,141.2,669.6,130.1,637.2L130.1,637.2z M633,665c-3.9,11.6-7.8,22.9-11.8,35.4c-3.3,10.4-12.2,28-22.7,45.4c-7.9,13.1-16.3,24.5-24.5,33.3c2.9,0.7,3.8,1.3,9.7,1.8c3.3,0.3,13,0.5,22.7,0.6c9.7,0.1,19.3-0.1,23.3,0c8.4,0.1,13.1-0.3,14.8-1.5c1.7-1.2,3.4-4.2,4.2-13.3c0.8-9.2,0.8-7.8-3.9-16c-0.4-0.7-0.8-1.9-0.9-2.7c-0.4-14.9-0.8-29.9-1.2-44.8c-0.4-13.4-2.7-20.2-8.2-33.3C633.8,668.1,633.6,666.7,633,665L633,665z"/></g>
</svg>